<?xml version="1.0" standalone="no"?><!DOCTYPE svg PUBLIC "-//W3C//DTD SVG 1.1//EN" "http://www.w3.org/Graphics/SVG/1.1/DTD/svg11.dtd"><svg class="icon" width="64px" height="22.37px" viewBox="0 0 2929 1024" version="1.1" xmlns="http://www.w3.org/2000/svg"><path d="M2831.748212 711.965665l-45.413448 99.616595-46.878398-99.616595h-45.413448l70.317597 137.705294v95.221745h42.483548v-95.221745l70.317597-137.705294h-45.413448z m-336.938484 60.062947l32.228899 96.686696H2461.11588l33.693848-96.686696z m42.483548 125.985694l16.114449 46.878398h43.948498l-86.432046-232.927039h-33.693848l-86.432046 232.927039h43.948498l16.114449-46.878398h86.432046z m-326.683834-74.712446h-46.878398v-80.572246h46.878398c23.439199 0 36.623748 20.509299 36.623748 39.553648 1.46495 20.509299-11.719599 41.018598-36.623748 41.018598z m2.9299-111.336195h-90.826896v232.927039h42.483548v-89.361946h48.343348c45.413448 0 77.642346-29.298999 77.642346-71.782546s-32.228898-71.782546-77.642346-71.782547z m-304.709585 232.927039h42.483548V711.965665h-42.483548v232.927039z m-295.919886-232.927039v232.927039h142.100143v-32.228899H1655.393419V711.965665h-42.483548z m-240.251788 60.062947l32.228898 96.686696h-65.922746l33.693848-96.686696z m42.483548 125.985694l16.114449 46.878398h43.948498l-86.432046-232.927039h-33.693848l-86.432046 232.927039h43.948498l16.114449-46.878398h86.432046z m297.384835-641.648069h-180.188841v-64.457796h209.48784v-39.553648h-209.48784v-82.037196h-93.756795c-10.254649 0-19.044349 8.7897-19.044349 19.044349v62.992847h-208.02289v39.553648h208.02289v64.457796h-175.793992v39.553649h350.123033S1574.821173 370.632332 1478.134478 452.669528c-86.432046-64.457797-114.266094-117.195994-114.266095-117.195994h-93.756795c38.088698 65.922747 92.291845 118.660944 149.424893 159.679542-52.738197 35.158798-123.055794 67.387697-212.41774 95.221745v48.343348s137.705293-26.369099 271.015737-104.011445c133.310443 77.642346 268.085837 104.011445 268.085837 104.011445v-45.413448c-86.432046-30.763948-153.819742-65.922747-208.02289-98.151645 79.107296-58.597997 146.494993-136.240343 174.329041-238.786839z m585.979972-178.723891h-93.756796v98.151645h-231.462088v39.553648h231.462088v351.587983c0 7.32475-7.32475 14.649499-14.649499 14.6495h-48.343348v41.018598h121.590844c19.044349-1.46495 35.158798-17.579399 35.158799-36.623749v-370.632332h38.088698v-39.553648h-38.088698v-98.151645zM2100.738197 281.270386c-2.9299-7.32475-10.254649-11.719599-19.044349-11.719599h-77.642346L2065.579399 461.459227h92.291846l-57.133048-180.188841z m817.442061 334.008584L2885.951359 503.942775c-1.46495-7.32475-8.7897-11.719599-16.114449-11.719599h-87.896996l24.904149 84.967096h-102.546495V411.65093h202.16309V372.097282h-202.16309v-77.642346h202.16309v-39.553648h-505.407725v39.553648h202.16309v77.642346h-202.16309v39.553648h202.16309v165.539342h-202.16309v39.553648l517.127325-1.46495z m-1048.904149-542.031474l-108.406295 254.901288h82.037196v303.244635h90.826896v-401.39628h-32.228899l68.852647-155.284693-101.081545-1.46495z m637.253219 87.896996h294.454935v58.597997h105.476395v-68.852646c0-16.114449-11.719599-27.834049-27.834049-27.834049h-169.934191v-54.203147h-109.871245v54.203147h-197.76824v98.151645h105.476395v-60.062947z"  /><path d="M862.855508 643.113019c147.959943 49.808298 181.653791 51.273247 181.653791 51.273247v-530.311874c0-90.826896-73.247496-164.074392-165.539342-164.074392h-700.246066c-90.826896 0-165.539342 73.247496-165.539342 164.074392v695.851216C14.649499 950.752504 87.896996 1024 180.188841 1024H878.969957c90.826896 0 165.539342-73.247496 165.539342-164.074392v-7.32475s-268.085837-111.336195-402.86123-175.793991c-90.826896 111.336195-208.02289 178.723891-329.613734 178.723891-205.09299 0-275.410587-178.723891-177.258942-295.919885 20.509299-24.904149 57.133047-49.808298 112.801145-64.457797 87.896996-21.974249 227.067239 13.184549 357.447782 55.668097 24.904149-45.413448 43.948498-92.291845 58.597998-140.635193h-402.861231V369.167382H468.783977v-73.247496h-251.971388v-41.018598H468.783977v-104.011445s0-17.579399 17.579399-17.5794h101.081545v121.590845h249.041488v41.018598h-249.041488v73.247496H791.072961c-19.044349 79.107296-48.343348 152.354793-86.432045 215.347639 61.527897 23.439199 117.195994 45.413448 158.214592 58.597998z" fill="#00A8F2" /><path d="M294.454936 556.680973c-26.369099 2.9299-74.712446 13.184549-101.081545 36.623748-79.107296 68.852647-32.228898 193.373391 128.915593 193.373391 93.756795 0 186.048641-58.597997 259.296138-153.819743-104.011445-49.808298-191.908441-84.967096-287.130186-76.177396z" fill="#00A8F2" /></svg>