<?xml version="1.0" standalone="no"?><!DOCTYPE svg PUBLIC "-//W3C//DTD SVG 1.1//EN" "http://www.w3.org/Graphics/SVG/1.1/DTD/svg11.dtd"><svg class="icon" width="64px" height="48.55px" viewBox="0 0 1350 1024" version="1.1" xmlns="http://www.w3.org/2000/svg"><path d="M193.230769 0v222.769231h87.384616v204.307692h-87.384616c0 40.615385 6.153846 68.923077 19.692308 84.923077 12.307692 16 36.923077 23.384615 71.384615 23.384615v204.307693c-9.846154 0-17.230769 1.230769-22.153846 1.230769-44.307692 0-84.923077-11.076923-124.307692-30.769231C98.461538 689.230769 67.692308 662.153846 44.307692 627.692308 14.769231 582.153846 0 523.076923 0 449.230769V0h193.230769zM548.923077 0v241.230769c33.230769-23.384615 65.230769-35.692308 98.461538-35.692307 49.230769 0 88.615385 18.461538 118.153847 54.153846 29.538462 35.692308 44.307692 84.923077 44.307692 145.230769v327.384615H615.384615V459.076923c0-22.153846-2.461538-36.923077-7.384615-44.307692-4.923077-7.384615-13.538462-11.076923-27.076923-11.076923-22.153846 0-33.230769 16-33.230769 48v280.615384H354.461538V0h194.461539z" fill="#F05132" /><path d="M1284.923077 553.846154H916.923077l-19.692308-54.153846c-3.692308-9.846154-9.846154-19.692308-17.230769-27.076923-12.307692-14.769231-30.769231-23.384615-50.461538-23.384616h-114.461539c-36.923077 0-66.461538 29.538462-66.461538 66.461539 0 36.923077 29.538462 66.461538 66.461538 66.461538H763.076923l94.769231 264.615385c2.461538 8.615385 7.384615 16 12.307692 22.153846-16 16-24.615385 39.384615-24.615384 62.769231 0 51.692308 41.846154 92.307692 92.307692 92.307692 51.692308 0 92.307692-41.846154 92.307692-92.307692 0-12.307692-2.461538-23.384615-6.153846-34.461539h70.153846c-3.692308 11.076923-6.153846 22.153846-6.153846 34.461539 0 51.692308 41.846154 92.307692 92.307692 92.307692 51.692308 0 92.307692-41.846154 92.307693-92.307692 0-20.923077-7.384615-39.384615-18.461539-55.384616 8.615385-8.615385 16-18.461538 19.692308-30.76923l71.384615-200.615385c2.461538-6.153846 3.692308-11.076923 3.692308-17.230769v-7.384616c1.230769-36.923077-28.307692-66.461538-64-66.461538z" fill="#FFFFFF" /><path d="M1308.307692 620.307692c0-13.538462-11.076923-23.384615-23.384615-23.384615H887.384615l-29.538461-81.230769c-2.461538-4.923077-4.923077-9.846154-8.615385-13.538462-4.923077-6.153846-11.076923-9.846154-19.692307-9.846154h-114.461539c-13.538462 0-23.384615 11.076923-23.384615 23.384616 0 13.538462 11.076923 23.384615 23.384615 23.384615h76.307692l104.615385 291.692308c6.153846 16 20.923077 24.615385 36.923077 23.384615h264.615385c16 2.461538 32-7.384615 38.153846-23.384615l71.384615-200.615385c1.230769-2.461538 1.230769-4.923077 1.230769-8.615384v-1.23077z m-81.230769 23.384616l-18.461538 52.923077H923.076923l-18.461538-52.923077h322.461538z m-56.615385 162.461538H962.461538l-22.153846-62.769231h252.307693l-22.153847 62.769231z"  /><path d="M1180.307692 930.461538m-50.461538 0a50.461538 50.461538 0 1 0 100.923077 0 50.461538 50.461538 0 1 0-100.923077 0Z"  /><path d="M936.615385 930.461538m-50.461539 0a50.461538 50.461538 0 1 0 100.923077 0 50.461538 50.461538 0 1 0-100.923077 0Z"  /><path d="M0 808.615385h70.153846l27.076923 104.615384 27.076923-104.615384h70.153846v172.307692h-43.076923V849.230769L116.923077 980.923077H77.538462L43.076923 849.230769v131.692308H0v-172.307692zM345.846154 952.615385h-60.307692l-8.615385 28.307692h-54.153846l65.230769-172.307692H344.615385l65.230769 172.307692h-55.384616l-8.615384-28.307692z m-11.076923-36.923077l-18.461539-61.538462-18.461538 61.538462h36.923077zM439.384615 980.923077v-172.307692h88.615385c16 0 29.538462 1.230769 38.153846 3.692307 8.615385 2.461538 16 8.615385 20.923077 16 4.923077 7.384615 7.384615 17.230769 7.384615 28.307693 0 9.846154-2.461538 17.230769-6.153846 24.615384-3.692308 7.384615-9.846154 12.307692-17.230769 17.230769-4.923077 2.461538-11.076923 4.923077-18.461538 7.384616 6.153846 2.461538 11.076923 3.692308 13.538461 6.153846 2.461538 1.230769 4.923077 4.923077 8.615385 8.615385 3.692308 4.923077 6.153846 8.615385 7.384615 11.076923l25.846154 50.461538h-60.307692l-28.307693-52.923077c-3.692308-7.384615-7.384615-11.076923-9.846153-13.538461-3.692308-2.461538-8.615385-3.692308-13.538462-3.692308h-4.923077v70.153846h-51.692308z m54.153847-102.153846h22.153846c2.461538 0 7.384615-1.230769 13.538461-2.461539 3.692308-1.230769 6.153846-2.461538 8.615385-4.923077 2.461538-2.461538 3.692308-6.153846 3.692308-9.846153 0-6.153846-1.230769-9.846154-4.923077-12.307693-3.692308-2.461538-9.846154-4.923077-19.692308-4.923077h-23.384615v34.461539zM624 808.615385h161.230769v43.076923h-54.153846v129.230769h-52.923077V851.692308h-54.153846v-43.076923z"  /></svg>